# xmcd
#
# Track frame offsets:
#	150
#	14870
#	25740
#	37607
#	46805
#	58277
#	74885
#	101605
#	119040
#	130055
#	152362
#	167280
#
# Disc length: 2490 seconds
# Revision: 0
# Processed by: cddbd v1.5.2PL0 Copyright (c) Steve Scherf et al.
# Submitted via: dBpowerAMP V12.0
#
DISCID=9d09b80c
DTITLE=Riders in the Sky - Christmas the Cowboy Way
DYEAR=1999
DGENRE=Country
TTITLE0=Corn, Water and Wood
TTITLE1=Let It Snow/The Last Christmas Medley You'll Ever Need to Hear
TTITLE2=The Christmas Yodel
TTITLE3=Sidemeat's Christmas Stew
TTITLE4=The Prairie Dog Christmas Ball
TTITLE5=The Friendly Beasts
TTITLE6=Virgin Maria
TTITLE7=I'll Be Home for Christmas
TTITLE8=An Old Fashioned Christmas Polka
TTITLE9=The Twelve Days of Cowboy Christmas
TTITLE10=Just Put a Ribbon in Your Hair
TTITLE11=O Come, O Come, Emmanuel
EXTD=
EXTT0=
EXTT1=
EXTT2=
EXTT3=
EXTT4=
EXTT5=
EXTT6=
EXTT7=
EXTT8=
EXTT9=
EXTT10=
EXTT11=
PLAYORDER=
